<svg xmlns="http://www.w3.org/2000/svg" width="336" viewBox="-120 -168 336 240" preserveAspectRatio="none" height="240" class="card"><rect transform="rotate(90)" stroke="#000" fill="#fff" ry="12" rx="12" y="-215.5" x="-167.5" height="335" width="239"/><path d="M164.668 52h27.776c3.068 0 5.556-2.986 5.556-6.667V12.002-21.332v-33.333-86.668c0-3.682-2.488-6.667-5.556-6.667h-11.11-27.777-27.778-27.778H42.446 14.668-13.11h-27.778-55.556c-3.068 0-5.556 2.985-5.556 6.667V45.333c0 3.682 2.488 6.667 5.556 6.667H164.668zM-90.89-5.24L16.967-134.667H29.03L-90.89 9.238zm0-33.334l80.079-96.094H1.253L-90.89-24.096zm0-33.333l52.3-62.761h12.065L-90.89-57.428zm0-33.334l24.523-29.427h12.064L-90.89-90.761zm175.478-29.427L-59.857 38.666h-12.065L72.523-134.667zm15.712 0h12.065L-32.08 38.666h-12.065zm27.778 0h12.065L-4.302 38.666h-12.065zm27.778 0h12.065L23.476 38.666H11.412zm31.033 43.905L79.032 38.666H66.967L186.89-105.239zm0 18.856v14.478L106.81 38.666H94.745zm0 33.333v14.477l-52.301 62.762h-12.065zm0 33.333V9.238l-24.523 29.428H150.3zm-8.81 43.906l8.81-10.572v10.572zm8.81-162.762L51.254 38.666H39.19l144.445-173.333h3.254zM-82.08-134.667l-8.81 10.572v-10.572zm-8.81 162.761L44.744-134.667H56.81L-87.636 38.666h-3.254z" fill="red"/></svg>