<svg xmlns="http://www.w3.org/2000/svg" width="240" viewBox="-120 -168 240 336" preserveAspectRatio="none" height="336" class="card"><rect stroke="#000" fill="#fff" ry="12" rx="12" y="-167.5" x="-119.5" height="335" width="239"/><path d="M100-116.668v-27.776c0-3.068-2.985-5.556-6.667-5.556H-93.333c-3.682 0-6.667 2.488-6.667 5.556V144.444c0 3.068 2.985 5.556 6.667 5.556H93.333c3.682 0 6.667-2.488 6.667-5.556v-11.11-27.777-27.778-27.778-27.777V-5.554-33.332-61.11v-27.777V-116.665v-.003zM42.76 138.89L-86.667 31.033V18.97L57.238 138.89zm-33.334 0l-96.094-80.079V46.747L23.904 138.89zm-33.333 0l-62.761-52.3V74.524l77.239 64.365zm-33.334 0l-29.427-24.523v-12.064l43.906 36.587zM-86.667-36.588L86.666 107.857v12.065L-86.667-24.523zm0-15.712v-12.065L86.666 80.08v12.065zm0-27.778v-12.065L86.666 52.302v12.065zm0-27.778v-12.065L86.666 24.524v12.064zm43.905-31.033L86.666-31.032v12.065L-57.239-138.89zm18.857 0h14.477L86.666-58.81v12.065zm33.332 0h14.478l62.761 52.301v12.065zm33.333 0h14.478l29.428 24.523v12.065zm43.906 8.81l-10.572-8.81h10.572zm-162.762-8.81L86.666-3.254V8.81L-86.667-135.635v-3.254zM-86.667 130.08l10.572 8.81h-10.572zm162.762 8.81L-86.668 3.256V-8.81L86.666 135.636v3.254z" fill="red"/></svg>