<?xml version="1.0" standalone="no"?>
<!DOCTYPE svg PUBLIC "-//W3C//DTD SVG 20010904//EN"
 "http://www.w3.org/TR/2001/REC-SVG-20010904/DTD/svg10.dtd">
<svg version="1.0" xmlns="http://www.w3.org/2000/svg"
 width="700.000000pt" height="700.000000pt" viewBox="0 0 700.000000 700.000000"
 preserveAspectRatio="xMidYMid meet">
<metadata>
Created by potrace 1.11, written by Peter Selinger 2001-2013
</metadata>
<g transform="translate(0.000000,700.000000) scale(0.100000,-0.100000)"
fill="#000000" stroke="none">
<path d="M3714 6971 c-118 -40 -155 -65 -263 -171 -77 -75 -124 -131 -216
-256 -106 -145 -181 -196 -385 -265 -51 -17 -100 -32 -109 -34 -9 -2 -68 -17
-131 -33 -108 -28 -125 -30 -275 -26 -88 1 -176 5 -195 8 -19 3 -57 8 -85 11
-27 3 -61 8 -75 10 -14 2 -43 7 -65 9 -58 7 -118 16 -140 20 -11 2 -56 9 -100
16 l-80 13 0 101 c0 88 -4 108 -26 157 -76 163 -256 252 -429 214 -144 -31
-270 -170 -289 -319 -9 -67 12 -177 43 -230 31 -53 95 -120 135 -140 l31 -17
-25 -49 c-54 -106 -68 -253 -38 -385 38 -166 129 -337 239 -450 31 -31 54 -58
52 -59 -2 -2 -27 -16 -56 -31 -72 -39 -162 -123 -194 -181 -14 -27 -36 -85
-48 -128 -45 -163 -74 -186 -194 -154 -38 10 -54 9 -100 -5 -127 -40 -267
-268 -300 -488 -32 -216 25 -375 157 -437 92 -43 297 -81 442 -82 116 -1 136
5 230 59 75 44 100 46 245 16 25 -5 35 -7 145 -24 75 -12 349 -12 435 0 374
50 683 182 1036 440 115 84 134 95 134 75 0 -28 -107 -281 -203 -477 -182
-374 -251 -563 -291 -794 -14 -80 -15 -353 -2 -405 13 -50 14 -165 3 -197 -7
-17 -39 -61 -72 -98 -33 -37 -88 -106 -123 -154 -96 -133 -227 -410 -248 -527
-3 -15 -7 -31 -10 -35 -9 -16 -5 -187 6 -234 21 -87 86 -207 144 -268 117
-121 232 -173 386 -171 110 1 126 4 212 42 87 39 139 56 167 54 52 -4 47 -47
-13 -107 -44 -44 -156 -92 -311 -135 -103 -28 -230 -88 -309 -144 -121 -87
-208 -208 -201 -282 2 -19 0 -36 -3 -38 -4 -2 -47 -7 -97 -10 -49 -4 -130 -13
-180 -21 -49 -7 -110 -17 -135 -20 -181 -25 -300 -57 -300 -82 0 -17 10 -21
90 -27 36 -3 76 -8 90 -11 31 -8 167 -8 200 0 14 3 97 8 185 10 217 5 539 20
661 30 41 4 98 1 135 -6 101 -18 121 -20 154 -10 16 5 49 12 73 15 23 3 51 10
61 16 13 6 62 8 134 4 64 -4 123 -3 134 1 10 4 81 9 158 10 167 3 395 12 560
21 66 3 197 7 290 9 94 2 199 6 235 10 36 4 73 7 83 7 9 0 17 3 17 8 0 4 12 8
28 7 68 -1 113 4 108 11 -2 4 5 9 17 9 12 1 67 5 121 9 l99 7 -74 24 c-71 22
-229 58 -300 67 -19 3 -56 8 -84 12 -64 9 -85 11 -110 13 -18 1 -20 7 -17 46
4 50 -23 108 -124 261 -126 192 -173 310 -169 426 3 58 22 156 35 173 4 6 11
21 15 35 19 62 163 249 193 250 4 0 61 2 127 4 183 5 323 40 490 123 132 65
209 127 352 278 13 14 107 157 108 165 1 3 13 28 27 55 68 132 121 331 146
550 14 117 7 405 -12 500 -32 164 -86 295 -121 295 -17 0 -23 -19 -30 -100
-17 -208 -79 -427 -173 -615 -151 -302 -400 -560 -607 -628 -36 -12 -54 -13
-107 -9 -32 3 -50 47 -54 129 -4 99 -5 105 -67 308 -46 152 -51 180 -52 265 0
107 7 122 95 211 140 141 341 471 406 666 30 92 41 201 25 258 -16 59 -58 93
-221 180 -80 43 -176 94 -215 115 -356 191 -551 364 -616 545 -58 159 -9 374
164 735 81 168 100 231 102 343 1 48 7 93 13 99 14 14 60 -2 228 -83 321 -154
512 -216 754 -244 47 -6 276 -6 320 0 165 21 235 36 350 77 202 73 348 174
449 312 65 90 95 170 94 257 0 119 -69 219 -183 270 -119 54 -323 64 -468 23
-93 -26 -271 -72 -312 -80 -14 -3 -44 -9 -68 -15 -24 -5 -67 -12 -95 -15 -29
-3 -54 -7 -57 -9 -10 -6 -173 -18 -262 -19 -133 -2 -290 12 -426 40 -124 25
-309 79 -326 95 -6 5 -16 9 -22 9 -16 0 -136 55 -133 61 1 2 -1 27 -4 54 -13
91 -90 197 -181 248 -70 39 -106 48 -196 53 -74 3 -96 0 -166 -25z m-2113
-2060 c132 -59 306 -109 444 -128 74 -10 343 -10 405 0 68 11 159 39 315 97
119 45 151 53 212 54 105 1 105 1 105 -179 -1 -94 -5 -151 -12 -160 -48 -58
-451 -260 -575 -289 -5 -2 -30 -8 -55 -15 -53 -15 -78 -21 -105 -26 -11 -2
-40 -8 -65 -14 -122 -28 -432 -32 -546 -7 -12 2 -39 7 -60 10 -22 4 -64 13
-94 22 -206 58 -234 161 -110 404 51 102 69 154 73 219 1 23 3 41 3 41 1 0 30
-13 65 -29z"/>
</g>
</svg>
